<?xml version="1.0" encoding="utf-8"?>
<!-- Generator: Adobe Illustrator 26.3.1, SVG Export Plug-In . SVG Version: 6.00 Build 0)  -->
<svg version="1.1" id="Layer_1" xmlns="http://www.w3.org/2000/svg" xmlns:xlink="http://www.w3.org/1999/xlink" x="0px" y="0px"
	 viewBox="0 0 864 864" style="enable-background:new 0 0 864 864;" xml:space="preserve">
<style type="text/css">
	.st0{fill:#010101;}
</style>
<path class="st0" d="M636.67,863.83c2.6-3.24,6.81-3.28,10.17-5.05c23.86-12.6,30.76-43.49,14.17-64.77
	c-2.75-3.52-5.91-6.75-9.07-9.92C537.3,669.43,422.68,554.75,307.86,440.27c-5.62-5.61-6.64-8.36-0.33-14.64
	c115.7-115.19,231.1-230.68,346.55-346.12c16.95-16.95,20.72-36.41,10.79-54.86c-12.54-23.32-43.37-29.99-64.33-13.83
	c-3.32,2.56-6.35,5.52-9.32,8.49c-126,125.92-251.98,251.85-377.96,377.79c-23.69,23.69-23.65,47.88,0.12,71.64
	c123.6,123.56,247.23,247.08,370.75,370.71c10.44,10.44,20.61,20.92,35.71,24.38C625.45,863.83,631.06,863.83,636.67,863.83z"/>
</svg>
