<?xml version="1.0" encoding="utf-8"?>
<!-- Generator: Adobe Illustrator 26.3.1, SVG Export Plug-In . SVG Version: 6.00 Build 0)  -->
<svg version="1.1" id="Layer_1" xmlns="http://www.w3.org/2000/svg" xmlns:xlink="http://www.w3.org/1999/xlink" x="0px" y="0px"
	 viewBox="0 0 864 864" style="enable-background:new 0 0 864 864;" xml:space="preserve">
<style type="text/css">
	.st0{fill:#3A57A3;}
	.st1{fill:#B2519C;}
</style>
<g>
	<path class="st0" d="M540.12,14.8c-0.02,4.83-0.08,9.67-0.03,14.5c0.01,1.11-0.33,1.32-1.38,1.32c-43.04-0.03-86.08-0.03-129.12,0
		c-1.06,0-1.37-0.22-1.36-1.32c0.07-4.84,0.03-9.67,0.03-14.51C452.22,14.8,496.17,14.8,540.12,14.8z"/>
	<path class="st0" d="M381.79,30.56c-0.47,0.01-0.95,0.04-1.42,0.04c-41.13,0-82.26,0-123.39,0.03c-1.28,0-1.65-0.25-1.62-1.59
		c0.1-4.75,0.04-9.5,0.04-14.25c42.13,0,84.27,0,126.4,0C381.79,20.05,381.79,25.31,381.79,30.56z"/>
	<path class="st0" d="M671.75,30.55c-0.43,0.02-0.86,0.05-1.29,0.05c-25.38,0-50.76-0.01-76.15,0.03c-1.25,0-1.7-0.27-1.53-1.54
		c0.17-1.22-0.53-2.87,0.28-3.57c0.71-0.61,2.31-0.27,3.51-0.18c1.18,0.08,1.56-0.28,1.51-1.48c-0.06-1.23-0.57-2.82,0.23-3.61
		c0.74-0.72,2.31-0.24,3.5-0.19c1.09,0.05,1.57-0.17,1.45-1.39c-0.13-1.28-0.06-2.58-0.08-3.88c22.84,0,45.68,0,68.52,0
		C671.72,20.05,671.74,25.3,671.75,30.55z"/>
	<path class="st0" d="M134.19,14.8c-0.02,3.47-0.04,6.94-0.05,10.41c-1.47-0.01-2.94,0.02-4.41-0.03c-0.73-0.02-0.99,0.24-0.97,0.97
		c0.05,1.47,0.02,2.93,0.03,4.4c-0.43,0.02-0.86,0.05-1.29,0.05c-18.43,0-36.85-0.01-55.28,0.03c-1.19,0-1.48-0.34-1.37-1.43
		c0.09-0.94,0.07-1.9,0-2.85c-0.05-0.77,0.16-1.09,0.99-1.04c1.08,0.07,2.16-0.02,3.24,0.03c0.77,0.04,1.09-0.19,1.04-1.01
		c-0.06-1.16,0.01-2.33-0.03-3.5c-0.02-0.62,0.21-0.84,0.83-0.82c1.12,0.03,2.25-0.06,3.37,0.03c1.02,0.08,1.25-0.31,1.2-1.25
		c-0.07-1.33,0-2.68,0.01-4.01C99.06,14.8,116.62,14.8,134.19,14.8z"/>
	<path class="st0" d="M223.69,30.56c-10.37,0.01-20.73,0.03-31.1,0.04c-3.28,0-6.57-0.03-9.85,0.02c-0.88,0.01-1.24-0.18-1.16-1.12
		c0.1-1.33-0.41-3.05,0.25-3.88c0.7-0.88,2.51-0.3,3.82-0.26c1.08,0.03,1.32-0.36,1.24-1.32c-0.07-0.99,0.03-1.99-0.03-2.97
		c-0.05-0.77,0.17-1.09,1-1.03c1.12,0.07,2.25-0.01,3.37,0.03c0.65,0.02,0.94-0.14,0.91-0.86c-0.06-1.46-0.05-2.93-0.07-4.39
		c10.55,0,21.11,0,31.66,0C223.72,20.05,223.71,25.3,223.69,30.56z"/>
	<path class="st0" d="M735.05,30.55c-6.13,0.02-12.26,0.04-18.4,0.05c-4.02,0.01-8.03,0.01-12.05,0c-0.47,0-1.07,0.21-1.06-0.67
		c0.05-5.04,0.06-10.08,0.09-15.13c10.47,0,20.94,0,31.41,0C735.04,20.05,735.04,25.3,735.05,30.55z"/>
	<path class="st1" d="M835.24,141.23c3.54-0.11,7.08-0.13,10.62,0.01c0,8.72,0,17.45,0,26.17c-3.54-0.02-7.09-0.04-10.63-0.05
		C835.24,158.64,835.24,149.94,835.24,141.23z"/>
	<path class="st1" d="M223.69,30.56c0.01-5.25,0.02-10.51,0.04-15.76c5.28,0,10.55,0,15.83,0c0.01,4.95,0.01,9.89,0.04,14.84
		c0,0.69-0.15,0.99-0.92,0.98C233.69,30.57,228.69,30.57,223.69,30.56z"/>
	<path class="st1" d="M671.75,30.55c-0.02-5.25-0.03-10.5-0.05-15.75c5.28,0,10.55,0,15.83,0c0.03,5,0.05,10,0.09,15.01
		c0.01,0.63-0.24,0.81-0.84,0.81C681.78,30.58,676.76,30.57,671.75,30.55z"/>
	<path class="st1" d="M735.05,30.55c0-5.25-0.01-10.5-0.01-15.75c5.28,0,10.55,0,15.83,0c0.01,4.96,0.01,9.92,0.04,14.88
		c0,0.61-0.08,0.95-0.83,0.94C745.07,30.57,740.06,30.57,735.05,30.55z"/>
	<path class="st1" d="M381.79,30.56c0-5.25,0-10.51,0-15.76c3.55,0,7.09,0,10.64,0c0.03,5.03,0.05,10.06,0.09,15.09
		c0.01,0.71-0.4,0.72-0.91,0.72C388.34,30.58,385.06,30.57,381.79,30.56z"/>
	<path class="st0" d="M835.24,141.23c0,8.71-0.01,17.42-0.01,26.13c-0.47,0.02-0.95,0.05-1.42,0.05c-42.9,0-85.8-0.01-128.7,0.04
		c-1.35,0-1.6-0.37-1.59-1.63c0.06-7.77,0.05-15.54,0.01-23.31c-0.01-1.06,0.24-1.37,1.34-1.37c43.07,0.03,86.14,0.02,129.22,0.03
		C834.47,141.16,834.86,141.2,835.24,141.23z"/>
	<path class="st0" d="M382.02,167.36c-0.47,0.01-0.95,0.04-1.42,0.04c-41.22,0-82.43-0.01-123.65,0.04c-1.37,0-1.58-0.4-1.57-1.63
		c0.06-7.81,0.04-15.63,0.01-23.44c0-0.93,0.19-1.23,1.19-1.23c41.56,0.03,83.13,0.02,124.69,0.03c0.26,0,0.52,0.04,0.77,0.06
		C382.03,149.93,382.02,158.65,382.02,167.36z"/>
	<path class="st0" d="M671.76,109.51c-0.47,0.02-0.95,0.06-1.42,0.06c-49.9,0-99.81,0-149.71,0.03c-1.28,0-1.71-0.25-1.65-1.6
		c0.12-2.67,0.07-5.35,0.02-8.03c-0.01-0.81,0.24-1.05,1.03-1.01c1.12,0.06,2.25-0.02,3.37,0.03c0.7,0.03,0.9-0.24,0.88-0.9
		c-0.04-1.12,0.04-2.25-0.03-3.37c-0.05-0.83,0.26-1.04,1.04-1c1.12,0.06,2.25-0.02,3.37,0.03c0.67,0.02,0.92-0.2,0.9-0.88
		c-0.04-1.16,0.03-2.33-0.03-3.5c-0.03-0.75,0.25-1.03,0.97-0.94c0.21,0.03,0.43,0,0.65,0c46.4,0,92.8,0,139.2,0
		c0.47,0,0.95,0.04,1.42,0.06C671.76,95.5,671.76,102.5,671.76,109.51z"/>
	<path class="st0" d="M381.79,98.96c-0.43,0.01-0.86,0.04-1.29,0.04c-25.39,0-50.77-0.01-76.16,0.03c-1.18,0-1.48-0.29-1.47-1.47
		c0.06-6.17,0.05-12.35,0.01-18.52c0-0.85,0.23-1.07,1.08-1.07c25.78,0.02,51.55,0.02,77.33,0.02c0.17,0,0.34,0.03,0.52,0.05
		C381.79,85.01,381.79,91.99,381.79,98.96z"/>
	<path class="st0" d="M128.79,56.91c-0.47,0.02-0.95,0.06-1.42,0.06c-27.12,0-54.23-0.01-81.35,0.04c-1.35,0-1.74-0.36-1.6-1.65
		c0.11-0.94,0.06-1.9,0.01-2.85c-0.03-0.69,0.24-0.91,0.9-0.88c0.99,0.04,2-0.09,2.98,0.03c1.32,0.16,1.64-0.37,1.51-1.58
		c-0.1-0.98,0-1.98-0.03-2.98c-0.02-0.56,0.18-0.76,0.75-0.74c1.17,0.03,2.34-0.05,3.5,0.03c0.83,0.05,1.04-0.26,1-1.03
		c-0.06-1.12,0.02-2.25-0.03-3.37c-0.03-0.67,0.16-0.93,0.86-0.89c0.99,0.05,2-0.07,2.98,0.03c1.3,0.14,1.66-0.39,1.54-1.6
		c-0.1-0.94,0.03-1.9-0.03-2.85c-0.05-0.76,0.25-1.02,0.96-0.91c0.08,0.01,0.17,0,0.26,0c22.1,0,44.2,0,66.3,0
		c0.3,0,0.6,0.03,0.9,0.05C128.78,42.86,128.79,49.89,128.79,56.91z"/>
	<path class="st0" d="M134.22,67.39c4.88,0,9.75-0.02,14.63,0.02c0.82,0.01,1.17-0.17,1.1-1.06c-0.07-0.99,0.06-1.99-0.04-2.97
		c-0.1-1,0.29-1.2,1.23-1.19c8.03,0.04,16.05,0.02,24.08,0.02c2.07,0,4.14,0.03,6.21,0.04c0,1.34-0.06,2.68,0.02,4.01
		c0.05,0.93-0.29,1.16-1.18,1.15c-2.81-0.05-5.61,0-8.42-0.03c-0.77-0.01-1.09,0.21-1.05,1.02c0.06,1.12-0.01,2.24,0.02,3.36
		c0.02,0.61-0.23,0.84-0.84,0.83c-1.12-0.03-2.25,0.02-3.37-0.01c-0.72-0.02-1.02,0.26-1,0.98c0.03,1.12-0.02,2.24,0.01,3.36
		c0.02,0.67-0.23,0.93-0.91,0.91c-1.12-0.03-2.25,0.02-3.37-0.02c-0.73-0.03-0.99,0.24-0.97,0.97c0.04,1.46,0.01,2.93,0,4.4
		c-0.35,0.01-0.69,0.03-1.04,0.03c-20.2,0.01-40.4,0.01-60.59,0.06c-1.27,0-1.56-0.32-1.54-1.56c0.07-4.75,0.02-9.5,0.01-14.25
		c0.22-1.73,0.06-3.47,0.09-5.21c3.07-0.02,6.13-0.05,9.2-0.06c6.96-0.01,13.91,0,20.87,0c0.47,0,0.95,0.04,1.42,0.07
		c-0.01,3.19-0.01,6.37-0.04,9.56c-0.01,0.69,0.16,1.04,0.93,1.01c1.21-0.05,2.42-0.04,3.62,0c0.68,0.02,0.9-0.24,0.89-0.91
		C134.17,70.4,134.21,68.9,134.22,67.39z"/>
	<path class="st0" d="M91.9,67.36c-1.72,0.03-3.43,0.06-5.15,0.09c-1.55-0.02-3.1-0.02-4.65-0.07c-0.61-0.02-0.85,0.21-0.84,0.82
		c0.03,1.12-0.03,2.24,0.02,3.36c0.04,0.79-0.24,1.04-1.03,1.03c-2.59-0.04-5.17-0.02-7.76-0.02c-1.63,0-1.63,0-1.63,1.69
		c0,2.97,0,5.94,0,8.91c-0.39,0.02-0.78,0.05-1.16,0.05c-16.73,0-33.46-0.01-50.19,0.03c-1.05,0-1.4-0.2-1.36-1.32
		c0.09-2.76,0.06-5.52,0.01-8.28c-0.01-0.77,0.17-1.09,1-1.03c1.08,0.07,2.16-0.03,3.24,0.03c0.77,0.04,1.1-0.16,1.04-0.99
		c-0.07-1.03,0.04-2.07-0.03-3.1c-0.06-0.88,0.17-1.25,1.12-1.17c1.12,0.08,2.25-0.01,3.37,0.03c0.61,0.02,0.85-0.18,0.82-0.81
		c-0.04-1.16,0.03-2.33-0.02-3.49c-0.04-0.75,0.24-1.03,0.96-0.92c0.08,0.01,0.17,0,0.26,0c20.36,0,40.72,0,61.08,0
		c0.3,0,0.6,0.04,0.9,0.06C91.9,63.95,91.9,65.66,91.9,67.36z"/>
	<path class="st0" d="M223.77,56.85c-0.4,0.23-0.85,0.12-1.27,0.12c-20.19,0.01-40.37,0-60.56,0.03c-1.16,0-1.65-0.25-1.49-1.48
		c0.16-1.27-0.53-2.93,0.28-3.73c0.74-0.73,2.39-0.24,3.63-0.18c1.14,0.06,1.59-0.21,1.51-1.45c-0.07-1.22-0.59-2.87,0.23-3.58
		c0.7-0.61,2.31-0.27,3.5-0.18c1.2,0.1,1.54-0.3,1.48-1.48c-0.06-1.23-0.57-2.88,0.22-3.58c0.68-0.61,2.3-0.27,3.5-0.2
		c1.13,0.07,1.67-0.2,1.52-1.46c-0.11-0.89,0.04-1.81-0.04-2.71c-0.08-0.92,0.26-1.16,1.16-1.15c4.93,0.04,9.86,0.02,14.78,0.02
		c9.99,0,19.97,0,29.96,0c0.52,0,1.03,0.03,1.55,0.05C223.74,42.88,223.75,49.86,223.77,56.85z"/>
	<path class="st0" d="M55.02,167.36c-5.62,0.01-11.24,0.03-16.86,0.04c-6.27,0.01-12.54-0.01-18.81,0.01
		c-0.77,0-1.15-0.08-1.14-1.02c0.04-8.07,0.03-16.15,0.01-24.22c0-0.64,0.06-1.04,0.88-1.04c11.98,0.04,23.96,0.05,35.93,0.07
		C55.03,149.93,55.03,158.65,55.02,167.36z"/>
	<path class="st0" d="M555.74,167.35c-3.93,0.02-7.87,0.05-11.8,0.05c-7.87,0.01-15.74-0.01-23.62,0.02c-0.93,0-1.34-0.11-1.33-1.22
		c0.06-7.94,0.03-15.89,0.03-23.84c0-0.65-0.13-1.24,0.94-1.23c11.85,0.04,23.7,0.03,35.56,0.04c0.08,0,0.17,0.04,0.25,0.06
		C555.75,149.93,555.74,158.64,555.74,167.35z"/>
	<path class="st0" d="M133.96,109.41c-4.02,0.01-8.04,0.04-12.05,0.04c-7.78,0.01-15.56-0.01-23.34,0.02
		c-0.88,0-1.28-0.09-1.27-1.15c0.06-6.25,0.04-12.51,0.01-18.77c0-0.77,0.1-1.13,1.03-1.13c16.98,0.03,33.97,0.02,50.95,0.03
		c0.17,0,0.34,0.04,0.51,0.06c-0.01,1.42-0.05,2.84-0.01,4.26c0.02,0.76-0.2,1.1-1.02,1.05c-0.99-0.06-1.99,0.04-2.97-0.03
		c-0.94-0.07-1.34,0.19-1.26,1.2c0.09,0.98,0,1.98,0.02,2.97c0.02,0.61-0.22,0.85-0.83,0.83c-1.03-0.03-2.07,0.04-3.1-0.02
		c-0.93-0.05-1.35,0.24-1.28,1.23c0.07,1.03-0.03,2.07,0.03,3.1c0.05,0.82-0.19,1.17-1.07,1.12c-1.03-0.07-2.07,0.03-3.1-0.03
		c-0.94-0.06-1.34,0.24-1.28,1.23C134.01,106.74,133.96,108.07,133.96,109.41z"/>
	<path class="st0" d="M671.93,167.36c-10.29,0.01-20.59,0.02-30.88,0.05c-0.65,0-0.79-0.24-0.79-0.83
		c0.02-8.2,0.02-16.41-0.01-24.61c0-0.88,0.48-0.83,1.07-0.83c4.33,0.01,8.65,0,12.98,0.01c5.88,0.01,11.76,0.04,17.64,0.06
		C671.94,149.93,671.93,158.65,671.93,167.36z"/>
	<path class="st0" d="M482.02,167.35c-2.85,0.02-5.71,0.05-8.56,0.05c-7.27,0.01-14.53-0.01-21.8,0.02c-0.84,0-1.2-0.11-1.2-1.09
		c0.04-8.03,0.03-16.06,0.02-24.09c0-0.69,0.05-1.1,0.95-1.1c10.12,0.03,20.24,0.03,30.36,0.03c0.08,0,0.17,0.04,0.25,0.06
		C482.04,149.93,482.03,158.64,482.02,167.35z"/>
	<path class="st0" d="M55.02,109.52c-5.01,0.02-10.02,0.04-15.04,0.05c-6.87,0.01-13.74-0.02-20.61,0.02
		c-0.96,0.01-1.23-0.22-1.23-1.21c0.05-6.26,0.03-12.51,0.02-18.77c0-0.66-0.11-1.21,0.95-1.21c11.88,0.04,23.77,0.03,35.65,0.04
		c0.09,0,0.17,0.03,0.26,0.04C55.02,95.5,55.02,102.51,55.02,109.52z"/>
	<path class="st0" d="M55.02,135.78c-6.31,0.02-12.62,0.04-18.94,0.05c-5.58,0.01-11.16-0.02-16.73,0.03
		c-0.97,0.01-1.22-0.24-1.21-1.21c0.05-6.26,0.02-12.52,0.02-18.78c0-0.56-0.13-1.07,0.79-1.07c12.02,0.04,24.04,0.05,36.06,0.06
		C55.02,121.83,55.02,128.8,55.02,135.78z"/>
	<path class="st0" d="M555.73,135.75c-5.96,0.02-11.93,0.04-17.89,0.05c-5.88,0.01-11.75-0.02-17.63,0.02
		c-0.95,0.01-1.23-0.21-1.23-1.2c0.05-6.21,0.03-12.42,0.02-18.64c0-0.67-0.1-1.2,0.95-1.2c11.84,0.04,23.68,0.03,35.52,0.04
		c0.08,0,0.17,0.03,0.25,0.05C555.73,121.82,555.73,128.79,555.73,135.75z"/>
	<path class="st0" d="M482,109.51c-3.37,0.02-6.74,0.06-10.11,0.06c-6.7,0.01-13.4-0.02-20.1,0.02c-0.98,0.01-1.33-0.2-1.32-1.26
		c0.05-6.21,0.03-12.43,0.02-18.64c0-0.76-0.02-1.27,1.05-1.27c9.99,0.04,19.97,0.02,29.96,0.03c0.17,0,0.34,0.04,0.51,0.06
		C482,95.5,482,102.5,482,109.51z"/>
	<path class="st0" d="M735.05,109.51c-3.54,0.02-7.09,0.06-10.63,0.06c-6.53,0.01-13.06-0.02-19.59,0.02
		c-0.94,0.01-1.25-0.19-1.25-1.2c0.05-6.26,0.03-12.52,0.02-18.78c0-0.68-0.06-1.2,0.97-1.2c10.03,0.04,20.07,0.03,30.1,0.03
		c0.13,0,0.26,0.04,0.38,0.06C735.05,95.5,735.05,102.5,735.05,109.51z"/>
	<path class="st0" d="M671.93,135.78c-5.1,0.02-10.2,0.04-15.3,0.05c-5.1,0.01-10.2-0.01-15.3,0.01c-0.7,0-1.09-0.04-1.08-0.94
		c0.04-6.39,0.03-12.77,0.01-19.16c0-0.59,0.03-0.94,0.8-0.94c10.29,0.04,20.57,0.04,30.86,0.06
		C671.93,121.83,671.93,128.8,671.93,135.78z"/>
	<path class="st0" d="M598.02,56.78c-1.73,0.02-3.46,0.07-5.18,0.07c-8.35,0.01-16.7-0.01-25.04,0.02c-0.99,0-1.41-0.21-1.31-1.27
		c0.09-0.94,0.08-1.9,0-2.85c-0.08-0.95,0.32-1.18,1.19-1.13c1.03,0.06,2.08-0.02,3.11,0.02c0.67,0.03,0.92-0.21,0.89-0.89
		c-0.04-1.12,0.03-2.25-0.03-3.37c-0.04-0.77,0.16-1.09,1-1.04c1.12,0.07,2.25-0.02,3.37,0.03c0.73,0.03,1-0.18,0.96-0.93
		c-0.06-1.12,0.04-2.25-0.03-3.37c-0.06-0.84,0.27-1.03,1.04-0.99c1.03,0.06,2.08-0.05,3.11,0.03c0.95,0.07,1.19-0.31,1.13-1.18
		c-0.07-1.12,0-2.24-0.02-3.37c-0.01-0.56,0.2-0.76,0.76-0.76c10.29,0.03,20.58,0.05,30.88,0.07c-0.01,1.38-0.04,2.76,0,4.14
		c0.02,0.74-0.24,0.99-0.97,0.96c-1.04-0.05-2.08,0.05-3.11-0.03c-0.94-0.07-1.2,0.31-1.14,1.19c0.07,0.94-0.05,1.9,0.03,2.84
		c0.09,1.04-0.19,1.51-1.33,1.4c-0.98-0.1-1.99,0.04-2.98-0.04c-0.94-0.07-1.2,0.32-1.15,1.19c0.06,0.94-0.05,1.9,0.03,2.84
		c0.09,1.01-0.32,1.28-1.26,1.2c-0.9-0.07-1.82,0.04-2.72-0.03c-0.92-0.07-1.35,0.16-1.27,1.19
		C598.07,54.1,598.01,55.44,598.02,56.78z"/>
	<path class="st0" d="M571.57,83.14c-5.58,0.02-11.15,0.04-16.73,0.05c-4.54,0.01-9.08-0.03-13.62,0.03
		c-0.99,0.01-1.3-0.27-1.19-1.23c0.15-1.31-0.56-3.03,0.3-3.85c0.78-0.75,2.48-0.25,3.76-0.19c1.07,0.05,1.33-0.34,1.25-1.31
		c-0.08-0.99,0.04-1.99-0.04-2.98c-0.07-0.9,0.3-1.1,1.11-1.06c1.12,0.06,2.25-0.02,3.37,0.02c0.67,0.02,0.92-0.21,0.89-0.89
		c-0.04-1.21,0.01-2.42-0.02-3.63c-0.01-0.56,0.18-0.76,0.75-0.74c1.04,0.04,2.09-0.09,3.11,0.03c1.22,0.15,1.49-0.36,1.38-1.44
		c-0.09-0.85,0.05-1.73-0.03-2.59c-0.09-0.96,0.22-1.24,1.2-1.23c5.49,0.05,10.98,0.02,16.48,0.03c4.63,0.01,9.25,0.04,13.88,0.06
		c-0.01,1.42-0.04,2.85-0.01,4.27c0.01,0.68-0.24,0.91-0.91,0.89c-1.17-0.04-2.33,0.01-3.5-0.02c-0.62-0.02-0.84,0.22-0.83,0.83
		c0.03,1.12-0.04,2.24,0.02,3.36c0.04,0.82-0.27,1.05-1.05,1.01c-0.99-0.05-1.99,0.06-2.98-0.03c-1.02-0.09-1.28,0.32-1.2,1.25
		c0.08,0.94-0.04,1.9,0.03,2.84c0.07,0.94-0.3,1.2-1.19,1.14c-0.99-0.06-1.99,0.03-2.98-0.03c-0.93-0.06-1.34,0.24-1.29,1.23
		C571.61,80.38,571.56,81.76,571.57,83.14z"/>
	<path class="st0" d="M735.05,83.15c-6.14,0.02-12.28,0.04-18.42,0.05c-3.98,0.01-7.96-0.03-11.94,0.02
		c-0.89,0.01-1.17-0.21-1.16-1.13c0.04-6.26,0.02-12.52,0.02-18.78c0-0.62-0.08-1.14,0.89-1.14c10.12,0.04,20.24,0.03,30.37,0.03
		c0.08,0,0.17,0.03,0.25,0.05C735.05,69.21,735.05,76.18,735.05,83.15z"/>
	<path class="st0" d="M671.77,56.78c-1.99,0.02-3.97,0.07-5.96,0.07c-8.09,0.01-16.17-0.01-24.26,0.02c-0.98,0-1.32-0.2-1.31-1.26
		c0.05-6.22,0.03-12.43,0.01-18.65c0-0.75,0.06-1.16,1.02-1.15c9.99,0.04,19.98,0.02,29.96,0.03c0.17,0,0.34,0.04,0.51,0.06
		C671.76,42.86,671.77,49.82,671.77,56.78z"/>
	<path class="st0" d="M482.01,56.78c-1.73,0.02-3.45,0.07-5.18,0.07c-8.34,0.01-16.68-0.01-25.02,0.02c-0.94,0-1.35-0.14-1.34-1.24
		c0.06-6.26,0.03-12.51,0.02-18.77c0-0.66-0.03-1.11,0.91-1.11c10.11,0.04,20.23,0.03,30.34,0.03c0.08,0,0.17,0.03,0.25,0.04
		C482,42.82,482,49.8,482.01,56.78z"/>
	<path class="st0" d="M482,135.75c-1.99,0.02-3.97,0.07-5.96,0.07c-8.08,0.01-16.16-0.02-24.24,0.03c-1.09,0.01-1.35-0.29-1.34-1.36
		c0.05-6.21,0.03-12.42,0.02-18.63c0-0.67,0.01-1.1,0.93-1.1c10.11,0.04,20.22,0.03,30.33,0.03c0.08,0,0.17,0.03,0.25,0.05
		C482,121.81,482,128.78,482,135.75z"/>
	<path class="st0" d="M735.05,135.76c-4.19,0.02-8.38,0.05-12.57,0.06c-5.92,0.01-11.84-0.01-17.76,0.02
		c-0.83,0-1.21-0.11-1.21-1.09c0.05-6.3,0.03-12.59,0.01-18.89c0-0.68,0.01-1.1,0.93-1.1c10.11,0.04,20.22,0.03,30.33,0.03
		c0.08,0,0.17,0.03,0.25,0.05C735.05,121.82,735.05,128.79,735.05,135.76z"/>
	<path class="st0" d="M735.06,56.78c-1.73,0.02-3.45,0.07-5.18,0.07c-8.35,0.01-16.69-0.01-25.04,0.02c-0.97,0-1.33-0.19-1.32-1.26
		c0.05-6.22,0.04-12.43,0.01-18.65c0-0.77,0.1-1.15,1.04-1.15c10.03,0.04,20.06,0.03,30.1,0.03c0.13,0,0.26,0.04,0.38,0.06
		C735.06,42.86,735.06,49.82,735.06,56.78z"/>
	<path class="st0" d="M481.99,83.15c-6.14,0.02-12.28,0.04-18.42,0.05c-3.98,0.01-7.96-0.03-11.94,0.02
		c-0.89,0.01-1.17-0.21-1.16-1.13c0.04-6.26,0.02-12.52,0.02-18.78c0-0.62-0.08-1.14,0.89-1.14c10.12,0.04,20.24,0.03,30.37,0.03
		c0.08,0,0.17,0.03,0.25,0.05C481.99,69.21,481.99,76.18,481.99,83.15z"/>
	<path class="st0" d="M671.77,83.16c-2.16,0.02-4.32,0.07-6.47,0.07c-7.91,0.01-15.81-0.02-23.72,0.03c-1.1,0.01-1.34-0.3-1.33-1.36
		c0.05-6.21,0.03-12.42,0.02-18.63c0-0.66-0.02-1.11,0.91-1.1c10.11,0.04,20.22,0.03,30.33,0.03c0.08,0,0.17,0.03,0.25,0.05
		C671.76,69.22,671.76,76.19,671.77,83.16z"/>
	<path class="st0" d="M223.73,167.36c-6.82,0.01-13.64,0.02-20.47,0.05c-0.6,0-0.83-0.14-0.82-0.78c0.02-8.23,0.02-16.47,0-24.7
		c0-0.65,0.25-0.79,0.84-0.79c6.82,0.03,13.64,0.05,20.46,0.07C223.73,149.93,223.73,158.65,223.73,167.36z"/>
	<path class="st0" d="M281.66,109.51c-5.18,0.02-10.36,0.05-15.54,0.06c-3.24,0.01-6.48-0.02-9.72,0.02
		c-0.79,0.01-1.03-0.2-1.02-1.01c0.03-6.38,0.02-12.76,0.02-19.14c0-0.52-0.09-1.01,0.74-1.01c8.51,0.04,17.01,0.05,25.52,0.07
		C281.66,95.5,281.66,102.5,281.66,109.51z"/>
	<path class="st0" d="M281.66,135.76c-5.7,0.02-11.41,0.04-17.11,0.06c-2.72,0.01-5.45-0.03-8.17,0.02
		c-0.8,0.01-1.01-0.21-1.01-1.01c0.03-6.34,0.02-12.69,0.02-19.03c0-0.5-0.15-1.01,0.72-1.01c8.51,0.04,17.03,0.05,25.54,0.07
		C281.66,121.83,281.66,128.8,281.66,135.76z"/>
	<path class="st0" d="M281.67,56.78c-4.19,0.02-8.38,0.06-12.57,0.07c-4.19,0.01-8.38-0.02-12.58,0.02
		c-0.9,0.01-1.16-0.22-1.15-1.14c0.04-6.26,0.02-12.51,0.02-18.77c0-0.61-0.11-1.16,0.87-1.15c8.38,0.04,16.77,0.03,25.15,0.03
		c0.08,0,0.17,0.03,0.25,0.05C281.67,42.86,281.67,49.82,281.67,56.78z"/>
	<path class="st0" d="M281.66,83.14c-7.56,0.02-15.12,0.05-22.68,0.05c-1.15,0-2.66,0.49-3.37-0.2c-0.7-0.7-0.2-2.21-0.21-3.36
		c-0.02-5.43-0.01-10.87,0-16.3c0-0.5-0.26-1.13,0.72-1.13c8.51,0.04,17.02,0.05,25.53,0.07C281.66,69.23,281.66,76.18,281.66,83.14
		z"/>
	<path class="st0" d="M223.73,109.52c-6.74,0.02-13.48,0.03-20.22,0.06c-0.6,0-0.84-0.17-0.84-0.8c0.02-6.52,0.02-13.03,0-19.55
		c0-0.63,0.23-0.81,0.83-0.8c6.74,0.03,13.48,0.04,20.22,0.06C223.73,95.5,223.73,102.51,223.73,109.52z"/>
	<path class="st0" d="M223.72,83.17c-6.7,0.01-13.4,0.01-20.1,0.05c-0.75,0-0.93-0.22-0.93-0.95c0.03-6.39,0.02-12.77,0.01-19.16
		c0-0.59,0.04-0.95,0.8-0.94c6.74,0.04,13.48,0.05,20.23,0.06C223.73,69.21,223.72,76.19,223.72,83.17z"/>
	<path class="st0" d="M223.73,135.77c-6.73,0.02-13.47,0.02-20.2,0.06c-0.7,0-0.86-0.23-0.86-0.89c0.02-6.42,0.02-12.84,0-19.26
		c0-0.66,0.16-0.89,0.86-0.89c6.73,0.04,13.47,0.04,20.2,0.06C223.73,121.83,223.73,128.8,223.73,135.77z"/>
	<path class="st1" d="M555.74,167.35c0.01-8.71,0.01-17.42,0.02-26.13c5.06-0.02,10.12-0.03,15.17-0.08
		c0.85-0.01,0.86,0.43,0.86,1.05c-0.01,4.27-0.01,8.55-0.01,12.82c0,3.8-0.01,7.6,0.01,11.4c0,0.65-0.05,1.02-0.88,1.02
		C565.85,167.37,560.79,167.37,555.74,167.35z"/>
	<path class="st1" d="M482.02,167.35c0.01-8.71,0.01-17.42,0.02-26.13c5.01-0.02,10.01-0.04,15.02-0.08
		c0.65-0.01,0.78,0.3,0.78,0.87c-0.01,8.19-0.01,16.38,0,24.57c0,0.6-0.17,0.84-0.8,0.83C492.04,167.38,487.03,167.37,482.02,167.35
		z"/>
	<path class="st1" d="M55.02,167.36c0-8.72,0.01-17.43,0.01-26.15c5-0.02,10.01-0.03,15.01-0.07c0.72-0.01,0.85,0.32,0.85,0.94
		c-0.01,8.14-0.01,16.29,0,24.43c0,0.64-0.15,0.91-0.86,0.91C65.03,167.38,60.03,167.38,55.02,167.36z"/>
	<path class="st1" d="M223.73,167.36c0-8.72,0.01-17.43,0.01-26.15c5.01-0.02,10.03-0.03,15.04-0.07c0.64,0,0.8,0.26,0.8,0.85
		c-0.01,8.2-0.01,16.4,0,24.6c0,0.61-0.18,0.83-0.8,0.82C233.75,167.38,228.74,167.38,223.73,167.36z"/>
	<path class="st1" d="M671.93,167.36c0-8.72,0.01-17.43,0.01-26.15c4.92-0.02,9.84-0.02,14.76-0.07c0.77-0.01,0.93,0.32,0.93,1
		c-0.02,8.1-0.02,16.2,0,24.3c0,0.72-0.19,0.98-0.94,0.97C681.77,167.38,676.85,167.38,671.93,167.36z"/>
	<path class="st1" d="M671.76,109.51c0-7,0-14,0-21c5.06-0.03,10.11-0.05,15.17-0.09c0.6,0,0.84,0.19,0.84,0.82
		c-0.01,6.52-0.01,13.03,0,19.55c0,0.63-0.24,0.82-0.84,0.81C681.87,109.55,676.81,109.53,671.76,109.51z"/>
	<path class="st1" d="M735.05,109.51c0-7,0-14,0-21.01c5.09-0.03,10.19-0.04,15.28-0.09c0.94-0.01,0.75,0.62,0.75,1.15
		c0.01,4.31,0,8.62,0,12.93c0,2.03,0,4.05,0,6.08c0,0.54,0.05,1.03-0.76,1.02C745.24,109.55,740.14,109.53,735.05,109.51z"/>
	<path class="st1" d="M133.96,109.41c0-1.33,0.04-2.67-0.03-4c-0.05-0.99,0.34-1.29,1.28-1.23c1.03,0.07,2.07-0.04,3.1,0.03
		c0.88,0.06,1.12-0.3,1.07-1.12c-0.06-1.03,0.04-2.07-0.03-3.1c-0.07-0.99,0.34-1.29,1.28-1.23c1.03,0.06,2.07-0.01,3.1,0.02
		c0.61,0.02,0.85-0.22,0.83-0.83c-0.03-0.99,0.06-1.99-0.02-2.97c-0.09-1.01,0.32-1.27,1.26-1.2c0.99,0.07,1.98-0.03,2.97,0.03
		c0.81,0.05,1.04-0.29,1.02-1.05c-0.04-1.42,0-2.84,0.01-4.26c5.1-0.03,10.19-0.05,15.29-0.08c0.59,0,0.72,0.29,0.72,0.8
		c-0.02,1.29-0.02,2.59,0,3.88c0.01,0.58-0.25,0.74-0.78,0.73c-1.12-0.02-2.25,0.07-3.37-0.03c-1.02-0.08-1.27,0.31-1.2,1.25
		c0.07,1.03-0.01,2.07,0.03,3.1c0.03,0.68-0.22,0.92-0.9,0.89c-1.04-0.04-2.08,0.07-3.11-0.03c-1.09-0.11-1.33,0.35-1.26,1.32
		c0.07,0.99-0.02,1.98,0.03,2.97c0.03,0.72-0.2,1-0.95,0.97c-1.16-0.05-2.33,0.01-3.5-0.02c-0.61-0.02-0.85,0.21-0.83,0.83
		c0.03,1.21-0.01,2.42,0.02,3.62c0.01,0.56-0.1,0.89-0.77,0.88c-4.97-0.02-9.94-0.02-14.91-0.03
		C134.19,109.57,134.08,109.46,133.96,109.41z"/>
	<path class="st1" d="M555.73,135.75c0-6.96,0-13.92,0-20.88c5.06-0.02,10.12-0.03,15.17-0.06c0.6,0,0.84,0.17,0.84,0.8
		c-0.02,6.48-0.01,12.95,0,19.43c0,0.51-0.12,0.81-0.71,0.8C565.93,135.79,560.83,135.77,555.73,135.75z"/>
	<path class="st1" d="M735.05,135.76c0-6.97,0-13.95,0-20.92c5.05-0.02,10.11-0.02,15.16-0.08c0.96-0.01,0.88,0.53,0.88,1.16
		c-0.01,4.74,0,9.49,0,14.23c0,1.6-0.03,3.19,0.01,4.79c0.02,0.67-0.21,0.9-0.89,0.9C745.16,135.8,740.11,135.78,735.05,135.76z"/>
	<path class="st1" d="M671.77,56.78c-0.01-6.96-0.01-13.92-0.02-20.88c5.1-0.03,10.19-0.05,15.29-0.09c0.59,0,0.72,0.29,0.72,0.8
		c-0.01,6.47-0.01,12.94,0,19.41c0,0.62-0.22,0.84-0.83,0.83C681.88,56.82,676.83,56.81,671.77,56.78z"/>
	<path class="st1" d="M160.39,83.17c0-1.47,0.04-2.93,0-4.4c-0.02-0.73,0.24-1,0.97-0.97c1.12,0.04,2.25-0.01,3.37,0.02
		c0.67,0.02,0.93-0.24,0.91-0.91c-0.03-1.12,0.01-2.24-0.01-3.36c-0.02-0.72,0.28-1,1-0.98c1.12,0.03,2.25-0.01,3.37,0.01
		c0.61,0.01,0.85-0.21,0.84-0.83c-0.03-1.12,0.04-2.24-0.02-3.36c-0.04-0.81,0.28-1.03,1.05-1.02c2.81,0.04,5.61-0.02,8.42,0.03
		c0.89,0.02,1.23-0.22,1.18-1.15c-0.07-1.33-0.02-2.67-0.02-4.01c5.1-0.02,10.2-0.05,15.31-0.08c0.57,0,0.76,0.23,0.75,0.77
		c-0.02,1.17-0.05,2.33,0.01,3.5c0.05,0.84-0.31,1-1.06,0.99c-2.81-0.03-5.62,0.03-8.43-0.03c-0.94-0.02-1.15,0.29-1.15,1.17
		c0.01,1.32,0.59,3.04-0.25,3.86c-0.77,0.76-2.47,0.24-3.76,0.19c-0.99-0.04-1.3,0.29-1.22,1.25c0.08,0.99-0.04,1.99,0.04,2.98
		c0.08,0.95-0.32,1.19-1.19,1.13c-0.99-0.06-1.99,0.03-2.98-0.03c-0.88-0.06-1.26,0.2-1.19,1.14c0.07,1.07-0.01,2.16,0.03,3.24
		c0.02,0.66-0.2,0.91-0.89,0.9C170.42,83.2,165.41,83.19,160.39,83.17z"/>
	<path class="st1" d="M482,109.51c0-7,0-14,0-21c5.01-0.03,10.02-0.05,15.02-0.09c0.61-0.01,0.83,0.21,0.83,0.82
		c-0.01,6.51-0.01,13.02,0,19.53c0,0.61-0.21,0.83-0.83,0.83C492.02,109.55,487.01,109.53,482,109.51z"/>
	<path class="st1" d="M55.02,109.52c0-7.01,0-14.02,0-21.03c5.01-0.02,10.03-0.04,15.04-0.08c0.61,0,0.84,0.19,0.84,0.82
		c-0.02,6.52-0.02,13.03,0,19.55c0,0.62-0.23,0.82-0.84,0.82C65.05,109.56,60.04,109.54,55.02,109.52z"/>
	<path class="st1" d="M223.73,109.52c0-7.01,0-14.02,0-21.03c5.01-0.02,10.02-0.04,15.03-0.08c0.62,0,0.82,0.21,0.82,0.82
		c-0.02,6.51-0.02,13.02,0,19.54c0,0.61-0.19,0.83-0.82,0.82C233.75,109.56,228.74,109.54,223.73,109.52z"/>
	<path class="st1" d="M281.66,109.51c0-7,0-14.01-0.01-21.01c5.01-0.03,10.02-0.04,15.03-0.08c0.6,0,0.85,0.2,0.85,0.82
		c-0.01,6.51-0.01,13.03,0,19.54c0,0.62-0.23,0.83-0.84,0.82C291.68,109.55,286.67,109.53,281.66,109.51z"/>
	<path class="st1" d="M571.57,83.14c-0.01-1.38,0.04-2.76-0.04-4.14c-0.05-1,0.36-1.29,1.29-1.23c0.99,0.06,1.99-0.04,2.98,0.03
		c0.88,0.06,1.26-0.21,1.19-1.14c-0.07-0.94,0.04-1.9-0.03-2.84c-0.07-0.94,0.19-1.34,1.2-1.25c0.99,0.09,1.99-0.02,2.98,0.03
		c0.77,0.04,1.09-0.19,1.05-1.01c-0.06-1.12,0.01-2.24-0.02-3.36c-0.02-0.61,0.21-0.85,0.83-0.83c1.17,0.03,2.33-0.02,3.5,0.02
		c0.67,0.02,0.92-0.21,0.91-0.89c-0.03-1.42,0-2.85,0.01-4.27c5.01-0.02,10.02-0.03,15.03-0.07c0.73-0.01,0.87,0.33,0.84,0.94
		c-0.05,1.37,0.43,3.11-0.24,4.02c-0.66,0.89-2.5,0.27-3.82,0.27c-0.95-0.01-1.19,0.35-1.15,1.21c0.06,1.03-0.02,2.07,0.03,3.1
		c0.03,0.74-0.26,0.99-0.98,0.96c-1.08-0.04-2.16,0.02-3.24-0.02c-0.77-0.03-1.09,0.22-1.05,1.03c0.06,1.16-0.01,2.33,0.02,3.49
		c0.02,0.62-0.22,0.83-0.83,0.82c-1.17-0.03-2.33,0.03-3.5-0.02c-0.75-0.03-0.98,0.24-0.95,0.97c0.05,1.12-0.02,2.24,0.02,3.36
		c0.02,0.64-0.14,0.92-0.86,0.92C581.67,83.17,576.62,83.16,571.57,83.14z"/>
	<path class="st1" d="M598.02,56.78c-0.01-1.34,0.05-2.68-0.04-4.01c-0.07-1.03,0.35-1.26,1.27-1.19c0.9,0.07,1.82-0.04,2.72,0.03
		c0.94,0.07,1.35-0.19,1.26-1.2c-0.09-0.94,0.03-1.9-0.03-2.84c-0.06-0.88,0.2-1.26,1.15-1.19c0.99,0.07,1.99-0.06,2.98,0.04
		c1.14,0.11,1.42-0.36,1.33-1.4c-0.08-0.94,0.03-1.9-0.03-2.84c-0.06-0.88,0.2-1.25,1.14-1.19c1.03,0.07,2.07-0.02,3.11,0.03
		c0.73,0.03,0.99-0.23,0.97-0.96c-0.04-1.38,0-2.76,0-4.14c5.01-0.03,10.02-0.05,15.03-0.09c0.62-0.01,0.84,0.22,0.82,0.83
		c-0.03,1.25-0.03,2.5,0,3.75c0.02,0.64-0.27,0.81-0.86,0.79c-1.17-0.03-2.33,0.02-3.5-0.02c-0.68-0.03-0.91,0.21-0.88,0.89
		c0.05,1.12-0.04,2.25,0.03,3.36c0.05,0.83-0.26,1.04-1.03,1c-0.99-0.06-1.99,0.06-2.98-0.04c-1.08-0.11-1.33,0.35-1.25,1.31
		c0.07,0.94-0.04,1.9,0.03,2.84c0.07,0.94-0.32,1.19-1.19,1.14c-1.03-0.06-2.08,0.02-3.11-0.03c-0.78-0.04-1.09,0.23-1.05,1.03
		c0.05,1.08-0.01,2.16,0.02,3.23c0.02,0.63-0.16,0.94-0.87,0.94C608.04,56.82,603.03,56.8,598.02,56.78z"/>
	<path class="st1" d="M223.73,135.77c0-6.97,0-13.95,0-20.92c5.01-0.01,10.03-0.02,15.04-0.05c0.6,0,0.84,0.17,0.83,0.8
		c-0.02,6.47-0.02,12.95,0,19.42c0,0.62-0.22,0.82-0.83,0.81C233.76,135.8,228.74,135.79,223.73,135.77z"/>
	<path class="st1" d="M482,135.75c0-6.97-0.01-13.94-0.01-20.91c5.01-0.02,10.02-0.03,15.03-0.07c0.61,0,0.83,0.19,0.83,0.81
		c-0.02,6.47-0.02,12.94,0,19.4c0,0.61-0.2,0.82-0.82,0.82C492.02,135.77,487.01,135.77,482,135.75z"/>
	<path class="st1" d="M223.72,83.17c0-6.98,0.01-13.96,0.01-20.93c5-0.02,10.01-0.02,15.01-0.06c0.71-0.01,0.86,0.27,0.86,0.91
		c-0.02,6.42-0.02,12.84,0,19.26c0,0.65-0.18,0.91-0.87,0.9C233.73,83.2,228.72,83.19,223.72,83.17z"/>
	<path class="st1" d="M671.93,135.78c0-6.97,0-13.95,0-20.92c4.96-0.01,9.92-0.02,14.89-0.06c0.73-0.01,0.96,0.22,0.96,0.95
		c-0.02,6.38-0.02,12.75,0,19.13c0,0.72-0.21,0.97-0.95,0.97C681.86,135.8,676.9,135.79,671.93,135.78z"/>
	<path class="st1" d="M223.77,56.85c-0.01-6.98-0.03-13.97-0.04-20.95c5.01-0.02,10.01-0.03,15.02-0.08
		c0.72-0.01,0.85,0.31,0.85,0.93c-0.01,6.38-0.03,12.76,0.01,19.14c0.01,1.02-0.52,0.97-1.21,0.97
		C233.53,56.85,228.65,56.85,223.77,56.85z"/>
	<path class="st1" d="M281.67,56.78c0-6.96-0.01-13.92-0.01-20.88c5.01-0.03,10.01-0.05,15.02-0.09c0.6,0,0.85,0.19,0.85,0.82
		c-0.01,6.47-0.01,12.93,0,19.4c0,0.61-0.23,0.83-0.84,0.83C291.69,56.82,286.68,56.81,281.67,56.78z"/>
	<path class="st1" d="M482.01,56.78C482,49.8,482,42.82,481.99,35.84c5.01-0.02,10.03-0.03,15.04-0.06c0.62,0,0.82,0.2,0.82,0.82
		c-0.02,6.47-0.02,12.95,0,19.42c0,0.59-0.17,0.85-0.8,0.85C492.03,56.82,487.02,56.8,482.01,56.78z"/>
	<path class="st1" d="M281.66,135.76c0-6.97-0.01-13.93-0.01-20.9c5.01-0.02,10.02-0.02,15.04-0.07c0.73-0.01,0.84,0.32,0.84,0.94
		c-0.01,6.38-0.01,12.77,0,19.15c0,0.61-0.1,0.96-0.84,0.95C291.69,135.79,286.67,135.78,281.66,135.76z"/>
	<path class="st1" d="M671.77,83.16c0-6.97-0.01-13.94-0.01-20.91c5.01-0.02,10.02-0.04,15.03-0.07c0.6,0,0.84,0.19,0.84,0.81
		c-0.01,6.47-0.01,12.94,0,19.41c0,0.62-0.22,0.82-0.83,0.81C681.79,83.18,676.78,83.17,671.77,83.16z"/>
	<path class="st1" d="M55.02,135.78c0-6.98,0-13.95,0-20.93c5.01-0.01,10.03-0.02,15.04-0.05c0.6,0,0.84,0.17,0.83,0.8
		c-0.02,6.47-0.02,12.95,0,19.42c0,0.62-0.23,0.82-0.83,0.81C65.05,135.8,60.04,135.79,55.02,135.78z"/>
	<path class="st1" d="M735.06,56.78c0-6.96-0.01-13.92-0.01-20.88c5.01-0.03,10.01-0.05,15.02-0.09c0.61-0.01,0.83,0.2,0.83,0.82
		c-0.01,6.47-0.01,12.93,0,19.4c0,0.61-0.21,0.83-0.82,0.83C745.08,56.82,740.07,56.8,735.06,56.78z"/>
	<path class="st1" d="M481.99,83.15c0-6.97,0-13.93,0-20.9c5.01-0.02,10.02-0.03,15.03-0.07c0.61,0,0.82,0.2,0.82,0.82
		c-0.02,6.47-0.02,12.94,0,19.41c0,0.63-0.22,0.81-0.83,0.81C492.01,83.17,487,83.16,481.99,83.15z"/>
	<path class="st1" d="M281.66,83.14c0-6.96,0-13.92,0-20.88c5.01-0.02,10.02-0.02,15.03-0.07c0.73-0.01,0.85,0.31,0.85,0.93
		c-0.01,6.38-0.01,12.77,0,19.15c0,0.62-0.12,0.94-0.85,0.93C291.68,83.17,286.67,83.16,281.66,83.14z"/>
	<path class="st1" d="M735.05,83.15c0-6.97,0-13.93,0-20.9c5.01-0.02,10.02-0.03,15.03-0.07c0.61,0,0.83,0.2,0.82,0.82
		c-0.02,6.47-0.02,12.94,0,19.41c0,0.62-0.22,0.81-0.83,0.81C745.07,83.17,740.06,83.16,735.05,83.15z"/>
	<path class="st1" d="M382.02,167.36c0-8.72,0.01-17.43,0.01-26.15c3.19-0.02,6.39-0.02,9.59-0.07c0.72-0.01,0.86,0.3,0.86,0.93
		c-0.01,8.15-0.02,16.3,0,24.45c0,0.66-0.18,0.91-0.87,0.9C388.41,167.37,385.21,167.38,382.02,167.36z"/>
	<path class="st1" d="M381.79,98.96c0-6.97,0-13.95,0-20.92c3.28-0.02,6.57-0.02,9.85-0.06c0.61-0.01,0.83,0.19,0.83,0.81
		c-0.02,6.47-0.02,12.95,0,19.42c0,0.63-0.23,0.81-0.83,0.8C388.36,98.98,385.07,98.98,381.79,98.96z"/>
	<path class="st1" d="M70.86,83.18c0-2.97,0-5.94,0-8.91c0-1.69,0-1.69,1.63-1.69c2.59,0,5.17-0.03,7.76,0.02
		c0.79,0.01,1.07-0.24,1.03-1.03c-0.05-1.12,0.01-2.24-0.02-3.36c-0.02-0.61,0.23-0.84,0.84-0.82c1.55,0.04,3.1,0.05,4.65,0.07
		c-0.01,3.14-0.05,6.29-0.01,9.43c0.01,0.91-0.24,1.21-1.16,1.15c-1.03-0.08-2.07,0.03-3.11-0.03c-0.78-0.04-1.09,0.18-1.04,1
		c0.07,1.07-0.01,2.15,0.03,3.23c0.02,0.67-0.11,1.02-0.91,1.01C77.33,83.19,74.09,83.2,70.86,83.18z"/>
	<path class="st1" d="M128.79,56.91c0-7.02,0-14.05-0.01-21.07c1.51-0.02,3.02-0.01,4.52-0.07c0.66-0.02,0.9,0.16,0.9,0.86
		c-0.02,6.5-0.02,12.99-0.01,19.49c0,0.55-0.08,0.9-0.76,0.88C131.89,56.94,130.34,56.94,128.79,56.91z"/>
	<path class="st1" d="M134.22,67.39c-0.01,1.51-0.05,3.01-0.02,4.52c0.01,0.66-0.21,0.93-0.89,0.91c-1.21-0.04-2.42-0.05-3.62,0
		c-0.78,0.03-0.94-0.32-0.93-1.01c0.03-3.19,0.03-6.37,0.04-9.56c1.5-0.01,3,0.01,4.49-0.06c0.77-0.03,0.93,0.28,0.91,0.97
		C134.17,64.57,134.21,65.98,134.22,67.39z"/>
	<path class="st1" d="M128.78,30.55c-0.01-1.47,0.02-2.93-0.03-4.4c-0.02-0.73,0.24-0.99,0.97-0.97c1.47,0.05,2.94,0.02,4.41,0.03
		c0.02,1.55,0.02,3.11,0.06,4.66c0.02,0.56-0.18,0.76-0.75,0.75C131.89,30.57,130.34,30.56,128.78,30.55z"/>
	<path class="st1" d="M91.9,67.36c0-1.71,0-3.41,0-5.12c1.81-0.11,3.61-0.1,5.42,0c-0.03,1.74,0.13,3.48-0.09,5.21
		C95.45,67.42,93.67,67.39,91.9,67.36z"/>
</g>
</svg>
