<?xml version="1.0" encoding="utf-8"?>
<!-- Generator: Adobe Illustrator 26.3.1, SVG Export Plug-In . SVG Version: 6.00 Build 0)  -->
<svg version="1.1" id="Layer_1" xmlns="http://www.w3.org/2000/svg" xmlns:xlink="http://www.w3.org/1999/xlink" x="0px" y="0px"
	 viewBox="0 0 864 864" style="enable-background:new 0 0 864 864;" xml:space="preserve">
<style type="text/css">
	.st0{fill:#54B870;}
</style>
<path class="st0" d="M230.84,353.19c47.74,53.73,98.02,104.44,162.81,138.08c14.71,7.63,27.82,5.08,38.1-7.92
	c11.85-14.97,23.42-30.17,35.24-45.17c12.18-15.45,26.05-17.75,42.37-6.91c42.4,28.16,84.76,56.38,127.07,84.67
	c16.08,10.75,19.28,25.17,9.44,41.81c-8.77,14.83-18.37,29.2-26.39,44.42c-15.3,29.05-40.28,41.04-71.58,44.13
	c-47.96,4.73-92.57-7.05-135.73-26.29c-51.54-22.97-97.32-55.06-140.06-91.4C204.38,471.02,142.6,407.68,91.8,334.36
	c-32.36-46.7-58.71-96.4-69.69-152.93c-5.42-27.88-5.98-55.77,0.35-83.68c4.65-20.48,15.45-36.33,33.47-47.2
	c17.47-10.54,34.87-21.2,52.47-31.54c15.76-9.26,30.26-5.86,40.61,9.48c16.32,24.17,32.43,48.48,48.65,72.71
	c1.46,2.19,3.14,4.23,4.72,6.34c10.26,15.7,20.5,31.42,30.79,47.11c11.95,18.2,9.79,31.34-7.23,44.55
	c-7.93,6.16-15.67,12.56-23.49,18.85c-7.76,5.92-15.81,11.5-23.22,17.83c-9.58,8.18-12.5,20.41-7.01,31.64
	c8.57,17.55,18.09,34.62,30.16,50.1C210.63,330.46,220.39,342.1,230.84,353.19z"/>
</svg>
