<?xml version="1.0" encoding="utf-8"?>
<!-- Generator: Adobe Illustrator 26.5.1, SVG Export Plug-In . SVG Version: 6.00 Build 0)  -->
<svg version="1.1" id="Layer_1" xmlns="http://www.w3.org/2000/svg" xmlns:xlink="http://www.w3.org/1999/xlink" x="0px" y="0px"
	 viewBox="0 0 864 864" style="enable-background:new 0 0 864 864;" xml:space="preserve">
<style type="text/css">
	.st0{fill:#995896;}
</style>
<path class="st0" d="M230.8,353.2c47.7,53.7,98,104.4,162.8,138.1c14.7,7.6,27.8,5.1,38.1-7.9c11.9-15,23.4-30.2,35.2-45.2
	c12.2-15.5,26-17.8,42.4-6.9c42.4,28.2,84.8,56.4,127.1,84.7c16.1,10.8,19.3,25.2,9.4,41.8c-8.8,14.8-18.4,29.2-26.4,44.4
	c-15.3,29-40.3,41-71.6,44.1c-48,4.7-92.6-7-135.7-26.3c-51.5-23-97.3-55.1-140.1-91.4C204.4,471,142.6,407.7,91.8,334.4
	C59.4,287.7,33.1,238,22.1,181.4c-5.4-27.9-6-55.8,0.4-83.7c4.6-20.5,15.4-36.3,33.5-47.2C73.4,40,90.8,29.3,108.4,19
	c15.8-9.3,30.3-5.9,40.6,9.5c16.3,24.2,32.4,48.5,48.6,72.7c1.5,2.2,3.1,4.2,4.7,6.3c10.3,15.7,20.5,31.4,30.8,47.1
	c11.9,18.2,9.8,31.3-7.2,44.6c-7.9,6.2-15.7,12.6-23.5,18.9c-7.8,5.9-15.8,11.5-23.2,17.8c-9.6,8.2-12.5,20.4-7,31.6
	c8.6,17.5,18.1,34.6,30.2,50.1C210.6,330.5,220.4,342.1,230.8,353.2z"/>
</svg>
