<?xml version="1.0" encoding="utf-8"?>
<!-- Generator: Adobe Illustrator 26.3.1, SVG Export Plug-In . SVG Version: 6.00 Build 0)  -->
<svg version="1.1" id="Layer_1" xmlns="http://www.w3.org/2000/svg" xmlns:xlink="http://www.w3.org/1999/xlink" x="0px" y="0px"
	 viewBox="0 0 864 864" style="enable-background:new 0 0 864 864;" xml:space="preserve">
<style type="text/css">
	.st0{fill:#010101;}
</style>
<path class="st0" d="M229.13,863.83c-2.6-3.24-6.81-3.28-10.17-5.05c-23.86-12.6-30.76-43.49-14.17-64.77
	c2.75-3.52,5.91-6.75,9.07-9.92C328.5,669.43,443.12,554.75,557.94,440.27c5.62-5.61,6.64-8.36,0.33-14.64
	c-115.7-115.19-231.1-230.68-346.55-346.12c-16.95-16.95-20.72-36.41-10.79-54.86c12.54-23.32,43.37-29.99,64.33-13.83
	c3.32,2.56,6.35,5.52,9.32,8.49c126,125.92,251.98,251.85,377.96,377.79c23.69,23.69,23.65,47.88-0.12,71.64
	C528.82,592.3,405.19,715.82,281.67,839.46c-10.44,10.44-20.61,20.92-35.71,24.38C240.35,863.83,234.74,863.83,229.13,863.83z"/>
</svg>
